# xmcd CD database file
#
# Track frame offsets:
#	150
#	18725
#	39157
#	55470
#	77537
#	103990
#	121170
#	141157
#	162057
#	190672
#	217125
#	245660
#	260205
#
# Disc length: 3840 seconds
#
# Revision: 0
# Processed by: cddbd v1.4PL0 Copyright (c) Steve Scherf et al.
# Submitted via: CDex 1.50beta10
#
DISCID=bb0efe0d
DTITLE=Akira Tana - Secret Agent Men
DYEAR=2002
DGENRE=Jazz
TTITLE0=Secret Agent Man
TTITLE1=Mission Impossible
TTITLE2=The Guardman
TTITLE3=In the Heat of the Night
TTITLE4=It's Probably Me
TTITLE5=Alfred Hitchcock Theme
TTITLE6=Charade
TTITLE7=From Russia With Love
TTITLE8=When We Are Alone
TTITLE9=Struttin' About
TTITLE10=Song for a Rainbow
TTITLE11=Navarac
TTITLE12=Chase Game
EXTD=YEAR: 2002
EXTT0=
EXTT1=
EXTT2=
EXTT3=
EXTT4=
EXTT5=
EXTT6=
EXTT7=
EXTT8=
EXTT9=
EXTT10=
EXTT11=
EXTT12=
PLAYORDER=
